 <svg
    width="188"
    height="84"
    viewBox="0 0 188 84"
    fill="none"
    xmlns="http://www.w3.org/2000/svg"
  >
    <path
      d="M171.236 25.2478V21.5511H187.398V25.2478L182.498 26.1075L166.851 66.5994C164.731 72.1015 162.524 76.2854 160.232 79.1511C157.939 82.0168 154.787 83.4496 150.775 83.4496C148.482 83.4496 146.448 82.8191 144.671 81.5582C142.952 80.2973 142.035 78.7785 141.92 77.0018C142.264 75.1105 143.095 73.7063 144.413 72.7893C145.789 71.8723 147.307 71.4138 148.969 71.4138C150.116 71.4138 151.348 71.643 152.666 72.1015C153.984 72.6174 155.217 73.735 156.363 75.4544L156.965 76.3141C159.486 73.6203 161.435 70.3248 162.811 66.4275V66.3415L145.703 25.9356L141.662 25.2478V21.5511H166.078V25.2478L160.318 26.2794L168.743 49.4914L176.91 26.2794L171.236 25.2478Z"
      fill="currentColor"
    />
    <path
      d="M119.269 63.0747V59.0341L123.997 58.0025C124.055 55.8246 124.083 53.6467 124.083 51.4688C124.14 49.2908 124.169 47.1416 124.169 45.021V8.9995L118.839 8.1398V4.52905L136.893 0.6604L138.268 1.5201L137.924 13.5559V45.021C137.924 47.1989 137.924 49.3768 137.924 51.5547C137.982 53.7326 138.039 55.9105 138.096 58.0885L142.825 59.0341V63.0747H119.269Z"
      fill="currentColor"
    />
    <path
      d="M93.629 63.0747V59.0341L98.3573 58.0025C98.4146 55.8246 98.4433 53.6467 98.4433 51.4688C98.5006 49.2908 98.5292 47.1416 98.5292 45.021V8.9995L93.1991 8.1398V4.52905L111.253 0.6604L112.628 1.5201L112.284 13.5559V45.021C112.284 47.1989 112.284 49.3768 112.284 51.5547C112.342 53.7326 112.399 55.9105 112.456 58.0885L117.185 59.0341V63.0747H93.629Z"
      fill="currentColor"
    />
    <path
      d="M68.9205 63.0747V59.0341L73.5629 58.0024C73.6202 55.9392 73.6489 53.7039 73.6489 51.2968C73.6489 48.8896 73.6489 46.7977 73.6489 45.021V40.8944C73.6489 38.5445 73.6202 36.5959 73.5629 35.0484C73.5629 33.4436 73.5056 31.7816 73.3909 30.0621L68.0608 29.2884V25.9356L86.1145 20.1756L87.576 21.1212L87.3181 33.5869V45.021C87.3181 46.7977 87.3181 48.9183 87.3181 51.3827C87.3181 53.7899 87.3468 56.0538 87.4041 58.1744L91.7026 59.0341V63.0747H68.9205ZM80.3545 13.8138C78.3486 13.8138 76.6292 13.1833 75.1963 11.9224C73.7635 10.6042 73.0471 8.9708 73.0471 7.02215C73.0471 5.01618 73.7635 3.38274 75.1963 2.12184C76.6292 0.803636 78.3486 0.144531 80.3545 0.144531C82.3605 0.144531 84.0799 0.803636 85.5127 2.12184C86.9456 3.38274 87.662 5.01618 87.662 7.02215C87.662 8.9708 86.9456 10.6042 85.5127 11.9224C84.0799 13.1833 82.3605 13.8138 80.3545 13.8138Z"
      fill="currentColor"
    />
    <path
      d="M30.8493 63.0747V59.0341L35.5776 58.0884C35.6349 55.9678 35.6636 53.704 35.6636 51.2968C35.6636 48.8896 35.6636 46.7977 35.6636 45.021V39.9487C35.6636 38.344 35.6349 37.0257 35.5776 35.9941C35.5776 34.9625 35.549 34.0168 35.4916 33.1571C35.4916 32.2401 35.463 31.2084 35.4057 30.0622L30.1615 29.2884V25.9356L47.0976 20.1756L48.6451 21.1213L49.4188 31.2657C50.6224 27.5977 52.3131 24.8466 54.491 23.0126C56.669 21.1213 58.8182 20.1756 60.9388 20.1756C62.8302 20.1756 64.4636 20.7201 65.8391 21.809C67.2146 22.8407 68.0743 24.4168 68.4182 26.5374C68.3609 28.7726 67.7591 30.5207 66.6128 31.7816C65.4666 32.9851 64.0337 33.5869 62.3143 33.5869C59.9072 33.5869 57.7006 32.2401 55.6946 29.5463L55.1788 28.8586C53.9179 30.0622 52.743 31.581 51.654 33.415C50.6224 35.249 49.8773 37.169 49.4188 39.175V45.021C49.4188 46.7977 49.4188 48.8323 49.4188 51.1248C49.4188 53.4174 49.4475 55.5666 49.5048 57.5726L56.2964 59.0341V63.0747H30.8493Z"
      fill="currentColor"
    />
    <path
      d="M18.6072 64.3642C14.7672 64.3642 11.7583 63.4472 9.58036 61.6132C7.40245 59.7219 6.31349 56.6556 6.31349 52.4144C6.31349 50.9242 6.31349 49.5487 6.31349 48.2878C6.3708 46.9696 6.39946 45.4795 6.39946 43.8174V27.3971H0.811401V22.3248L7.17319 21.4651L11.4717 9.42932H20.2407L20.0687 21.5511H29.0956V27.3971H20.0687V51.4687C20.0687 53.4747 20.4699 54.9648 21.2723 55.9392C22.132 56.8562 23.1923 57.3147 24.4532 57.3147C25.9433 57.3147 27.4908 56.6842 29.0956 55.4234L31.2448 57.4866C30.0986 59.6645 28.4938 61.3553 26.4305 62.5589C24.4245 63.7625 21.8168 64.3642 18.6072 64.3642Z"
      fill="currentColor"
    />
  </svg>